<mxfile host="app.diagrams.net" modified="2023-05-31T02:03:31.599Z" agent="Mozilla/5.0 (Windows NT 10.0; Win64; x64) AppleWebKit/537.36 (KHTML, like Gecko) Chrome/113.0.0.0 Safari/537.36" etag="NmPFH11_5qbjFptiT2h5" version="21.3.4" type="github">
  <diagram name="Page-1" id="2YBvvXClWsGukQMizWep">
    <mxGraphModel dx="2033" dy="610" grid="1" gridSize="10" guides="1" tooltips="1" connect="1" arrows="1" fold="1" page="1" pageScale="1" pageWidth="850" pageHeight="1100" math="0" shadow="0">
      <root>
        <mxCell id="0" />
        <mxCell id="1" parent="0" />
        <mxCell id="8hkkn-3WCArkH5dwM9WC-1" value="OplusMirageDisplay&lt;br&gt;ManagerService" style="shape=umlLifeline;perimeter=lifelinePerimeter;whiteSpace=wrap;html=1;container=0;dropTarget=0;collapsible=0;recursiveResize=0;outlineConnect=0;portConstraint=eastwest;newEdgeStyle={&quot;edgeStyle&quot;:&quot;elbowEdgeStyle&quot;,&quot;elbow&quot;:&quot;vertical&quot;,&quot;curved&quot;:0,&quot;rounded&quot;:0};" parent="1" vertex="1">
          <mxGeometry x="40" y="30" width="130" height="2040" as="geometry" />
        </mxCell>
        <mxCell id="8hkkn-3WCArkH5dwM9WC-2" value="" style="html=1;points=[];perimeter=orthogonalPerimeter;outlineConnect=0;targetShapes=umlLifeline;portConstraint=eastwest;newEdgeStyle={&quot;edgeStyle&quot;:&quot;elbowEdgeStyle&quot;,&quot;elbow&quot;:&quot;vertical&quot;,&quot;curved&quot;:0,&quot;rounded&quot;:0};" parent="8hkkn-3WCArkH5dwM9WC-1" vertex="1">
          <mxGeometry x="54" y="65" width="22" height="135" as="geometry" />
        </mxCell>
        <mxCell id="8hkkn-3WCArkH5dwM9WC-3" value="1.startMiragewindowMode&lt;br&gt;(intent,startOptions)" style="html=1;verticalAlign=bottom;startArrow=oval;endArrow=block;startSize=8;edgeStyle=elbowEdgeStyle;elbow=vertical;curved=0;rounded=0;" parent="8hkkn-3WCArkH5dwM9WC-1" edge="1">
          <mxGeometry relative="1" as="geometry">
            <mxPoint x="-110" y="83" as="sourcePoint" />
            <mxPoint x="51" y="83.10344827586209" as="targetPoint" />
          </mxGeometry>
        </mxCell>
        <mxCell id="gd3cZbeCwH0rsJXDqoFe-23" value="" style="html=1;points=[];perimeter=orthogonalPerimeter;outlineConnect=0;targetShapes=umlLifeline;portConstraint=eastwest;newEdgeStyle={&quot;edgeStyle&quot;:&quot;elbowEdgeStyle&quot;,&quot;elbow&quot;:&quot;vertical&quot;,&quot;curved&quot;:0,&quot;rounded&quot;:0};" vertex="1" parent="8hkkn-3WCArkH5dwM9WC-1">
          <mxGeometry x="50" y="1770" width="30" height="220" as="geometry" />
        </mxCell>
        <mxCell id="8hkkn-3WCArkH5dwM9WC-279" value="OplusMirageDisplay&lt;br&gt;DeivceManager" style="shape=umlLifeline;perimeter=lifelinePerimeter;whiteSpace=wrap;html=1;container=0;dropTarget=0;collapsible=0;recursiveResize=0;outlineConnect=0;portConstraint=eastwest;newEdgeStyle={&quot;edgeStyle&quot;:&quot;elbowEdgeStyle&quot;,&quot;elbow&quot;:&quot;vertical&quot;,&quot;curved&quot;:0,&quot;rounded&quot;:0};" parent="1" vertex="1">
          <mxGeometry x="253" y="20" width="130" height="2110" as="geometry" />
        </mxCell>
        <mxCell id="8hkkn-3WCArkH5dwM9WC-280" value="" style="html=1;points=[];perimeter=orthogonalPerimeter;outlineConnect=0;targetShapes=umlLifeline;portConstraint=eastwest;newEdgeStyle={&quot;edgeStyle&quot;:&quot;elbowEdgeStyle&quot;,&quot;elbow&quot;:&quot;vertical&quot;,&quot;curved&quot;:0,&quot;rounded&quot;:0};" parent="8hkkn-3WCArkH5dwM9WC-279" vertex="1">
          <mxGeometry x="54" y="65" width="22" height="625" as="geometry" />
        </mxCell>
        <mxCell id="8hkkn-3WCArkH5dwM9WC-285" value="" style="html=1;points=[];perimeter=orthogonalPerimeter;outlineConnect=0;targetShapes=umlLifeline;portConstraint=eastwest;newEdgeStyle={&quot;edgeStyle&quot;:&quot;elbowEdgeStyle&quot;,&quot;elbow&quot;:&quot;vertical&quot;,&quot;curved&quot;:0,&quot;rounded&quot;:0};" parent="8hkkn-3WCArkH5dwM9WC-279" vertex="1">
          <mxGeometry x="71" y="268" width="10" height="40" as="geometry" />
        </mxCell>
        <mxCell id="8hkkn-3WCArkH5dwM9WC-286" value="5. createDisplayDevice&lt;br&gt;AlwaysNew" style="html=1;align=left;spacingLeft=2;endArrow=block;rounded=0;edgeStyle=orthogonalEdgeStyle;curved=0;rounded=0;" parent="8hkkn-3WCArkH5dwM9WC-279" target="8hkkn-3WCArkH5dwM9WC-285" edge="1">
          <mxGeometry relative="1" as="geometry">
            <mxPoint x="76" y="248" as="sourcePoint" />
            <Array as="points">
              <mxPoint x="106" y="278" />
            </Array>
          </mxGeometry>
        </mxCell>
        <mxCell id="gd3cZbeCwH0rsJXDqoFe-13" value="" style="html=1;points=[];perimeter=orthogonalPerimeter;outlineConnect=0;targetShapes=umlLifeline;portConstraint=eastwest;newEdgeStyle={&quot;edgeStyle&quot;:&quot;elbowEdgeStyle&quot;,&quot;elbow&quot;:&quot;vertical&quot;,&quot;curved&quot;:0,&quot;rounded&quot;:0};" vertex="1" parent="8hkkn-3WCArkH5dwM9WC-279">
          <mxGeometry x="71" y="590" width="10" height="40" as="geometry" />
        </mxCell>
        <mxCell id="gd3cZbeCwH0rsJXDqoFe-14" value="mDisplayDevices.add(device)" style="html=1;align=left;spacingLeft=2;endArrow=block;rounded=0;edgeStyle=orthogonalEdgeStyle;curved=0;rounded=0;" edge="1" target="gd3cZbeCwH0rsJXDqoFe-13" parent="8hkkn-3WCArkH5dwM9WC-279">
          <mxGeometry relative="1" as="geometry">
            <mxPoint x="76" y="570" as="sourcePoint" />
            <Array as="points">
              <mxPoint x="106" y="600" />
            </Array>
          </mxGeometry>
        </mxCell>
        <mxCell id="gd3cZbeCwH0rsJXDqoFe-31" value="" style="html=1;points=[];perimeter=orthogonalPerimeter;outlineConnect=0;targetShapes=umlLifeline;portConstraint=eastwest;newEdgeStyle={&quot;edgeStyle&quot;:&quot;elbowEdgeStyle&quot;,&quot;elbow&quot;:&quot;vertical&quot;,&quot;curved&quot;:0,&quot;rounded&quot;:0};" vertex="1" parent="8hkkn-3WCArkH5dwM9WC-279">
          <mxGeometry x="50" y="1980" width="30" height="90" as="geometry" />
        </mxCell>
        <mxCell id="8hkkn-3WCArkH5dwM9WC-284" value="2. createDisplayDevice()" style="html=1;verticalAlign=bottom;endArrow=block;edgeStyle=elbowEdgeStyle;elbow=vertical;curved=0;rounded=0;" parent="1" edge="1">
          <mxGeometry width="80" relative="1" as="geometry">
            <mxPoint x="120" y="150" as="sourcePoint" />
            <mxPoint x="307" y="150.0344827586207" as="targetPoint" />
          </mxGeometry>
        </mxCell>
        <mxCell id="8hkkn-3WCArkH5dwM9WC-287" value="OplusMirageDisplayInfo" style="shape=umlLifeline;perimeter=lifelinePerimeter;whiteSpace=wrap;html=1;container=0;dropTarget=0;collapsible=0;recursiveResize=0;outlineConnect=0;portConstraint=eastwest;newEdgeStyle={&quot;edgeStyle&quot;:&quot;elbowEdgeStyle&quot;,&quot;elbow&quot;:&quot;vertical&quot;,&quot;curved&quot;:0,&quot;rounded&quot;:0};" parent="1" vertex="1">
          <mxGeometry x="463" y="20" width="130" height="510" as="geometry" />
        </mxCell>
        <mxCell id="8hkkn-3WCArkH5dwM9WC-288" value="" style="html=1;points=[];perimeter=orthogonalPerimeter;outlineConnect=0;targetShapes=umlLifeline;portConstraint=eastwest;newEdgeStyle={&quot;edgeStyle&quot;:&quot;elbowEdgeStyle&quot;,&quot;elbow&quot;:&quot;vertical&quot;,&quot;curved&quot;:0,&quot;rounded&quot;:0};" parent="8hkkn-3WCArkH5dwM9WC-287" vertex="1">
          <mxGeometry x="54" y="140" width="22" height="90" as="geometry" />
        </mxCell>
        <mxCell id="8hkkn-3WCArkH5dwM9WC-293" value="3. createFromMirageOptions" style="html=1;verticalAlign=bottom;endArrow=block;edgeStyle=elbowEdgeStyle;elbow=vertical;curved=0;rounded=0;" parent="1" edge="1">
          <mxGeometry width="80" relative="1" as="geometry">
            <mxPoint x="333" y="195" as="sourcePoint" />
            <mxPoint x="513" y="195" as="targetPoint" />
          </mxGeometry>
        </mxCell>
        <mxCell id="8hkkn-3WCArkH5dwM9WC-296" value="OplusMirageDisplay&lt;br&gt;DeviceFactory" style="shape=umlLifeline;perimeter=lifelinePerimeter;whiteSpace=wrap;html=1;container=0;dropTarget=0;collapsible=0;recursiveResize=0;outlineConnect=0;portConstraint=eastwest;newEdgeStyle={&quot;edgeStyle&quot;:&quot;elbowEdgeStyle&quot;,&quot;elbow&quot;:&quot;vertical&quot;,&quot;curved&quot;:0,&quot;rounded&quot;:0};" parent="1" vertex="1">
          <mxGeometry x="623" y="19" width="130" height="661" as="geometry" />
        </mxCell>
        <mxCell id="8hkkn-3WCArkH5dwM9WC-297" value="" style="html=1;points=[];perimeter=orthogonalPerimeter;outlineConnect=0;targetShapes=umlLifeline;portConstraint=eastwest;newEdgeStyle={&quot;edgeStyle&quot;:&quot;elbowEdgeStyle&quot;,&quot;elbow&quot;:&quot;vertical&quot;,&quot;curved&quot;:0,&quot;rounded&quot;:0};" parent="8hkkn-3WCArkH5dwM9WC-296" vertex="1">
          <mxGeometry x="53" y="300" width="22" height="270" as="geometry" />
        </mxCell>
        <mxCell id="8hkkn-3WCArkH5dwM9WC-304" value="" style="html=1;points=[];perimeter=orthogonalPerimeter;outlineConnect=0;targetShapes=umlLifeline;portConstraint=eastwest;newEdgeStyle={&quot;edgeStyle&quot;:&quot;elbowEdgeStyle&quot;,&quot;elbow&quot;:&quot;vertical&quot;,&quot;curved&quot;:0,&quot;rounded&quot;:0};" parent="8hkkn-3WCArkH5dwM9WC-296" vertex="1">
          <mxGeometry x="70" y="362" width="10" height="40" as="geometry" />
        </mxCell>
        <mxCell id="8hkkn-3WCArkH5dwM9WC-305" value="7. createReal&lt;br&gt;DisplayDevice" style="html=1;align=left;spacingLeft=2;endArrow=block;rounded=0;edgeStyle=orthogonalEdgeStyle;curved=0;rounded=0;" parent="8hkkn-3WCArkH5dwM9WC-296" target="8hkkn-3WCArkH5dwM9WC-304" edge="1">
          <mxGeometry relative="1" as="geometry">
            <mxPoint x="75" y="342" as="sourcePoint" />
            <Array as="points">
              <mxPoint x="105" y="372" />
            </Array>
          </mxGeometry>
        </mxCell>
        <mxCell id="8hkkn-3WCArkH5dwM9WC-303" value="6. mDeviceFactory.create()" style="html=1;verticalAlign=bottom;endArrow=block;edgeStyle=elbowEdgeStyle;elbow=vertical;curved=0;rounded=0;" parent="1" edge="1">
          <mxGeometry x="0.0015" width="80" relative="1" as="geometry">
            <mxPoint x="333" y="349" as="sourcePoint" />
            <mxPoint x="670" y="349" as="targetPoint" />
            <mxPoint as="offset" />
          </mxGeometry>
        </mxCell>
        <mxCell id="8hkkn-3WCArkH5dwM9WC-306" value="OverlayDisplayAdapter" style="shape=umlLifeline;perimeter=lifelinePerimeter;whiteSpace=wrap;html=1;container=0;dropTarget=0;collapsible=0;recursiveResize=0;outlineConnect=0;portConstraint=eastwest;newEdgeStyle={&quot;edgeStyle&quot;:&quot;elbowEdgeStyle&quot;,&quot;elbow&quot;:&quot;vertical&quot;,&quot;curved&quot;:0,&quot;rounded&quot;:0};" parent="1" vertex="1">
          <mxGeometry x="803" y="20" width="130" height="650" as="geometry" />
        </mxCell>
        <mxCell id="8hkkn-3WCArkH5dwM9WC-307" value="" style="html=1;points=[];perimeter=orthogonalPerimeter;outlineConnect=0;targetShapes=umlLifeline;portConstraint=eastwest;newEdgeStyle={&quot;edgeStyle&quot;:&quot;elbowEdgeStyle&quot;,&quot;elbow&quot;:&quot;vertical&quot;,&quot;curved&quot;:0,&quot;rounded&quot;:0};" parent="8hkkn-3WCArkH5dwM9WC-306" vertex="1">
          <mxGeometry x="53" y="380" width="22" height="190" as="geometry" />
        </mxCell>
        <mxCell id="8hkkn-3WCArkH5dwM9WC-310" value="&lt;font style=&quot;font-size: 14px;&quot;&gt;&lt;i&gt;9. sendDisplayDevice&lt;br&gt;EventLocked&lt;/i&gt;&lt;/font&gt;" style="html=1;verticalAlign=bottom;endArrow=block;edgeStyle=elbowEdgeStyle;elbow=vertical;curved=0;rounded=0;" parent="1" edge="1">
          <mxGeometry width="80" relative="1" as="geometry">
            <mxPoint x="702" y="529" as="sourcePoint" />
            <mxPoint x="852" y="529" as="targetPoint" />
            <mxPoint as="offset" />
          </mxGeometry>
        </mxCell>
        <mxCell id="8hkkn-3WCArkH5dwM9WC-311" value="OplusMirageDisplayDevice" style="html=1;verticalAlign=bottom;endArrow=open;dashed=1;endSize=8;edgeStyle=elbowEdgeStyle;elbow=vertical;curved=0;rounded=0;" parent="1" edge="1">
          <mxGeometry relative="1" as="geometry">
            <mxPoint x="670" y="576" as="sourcePoint" />
            <mxPoint x="330" y="576" as="targetPoint" />
          </mxGeometry>
        </mxCell>
        <mxCell id="8hkkn-3WCArkH5dwM9WC-312" value="OplusMirageWindow&lt;br&gt;ManagerService" style="shape=umlLifeline;perimeter=lifelinePerimeter;whiteSpace=wrap;html=1;container=0;dropTarget=0;collapsible=0;recursiveResize=0;outlineConnect=0;portConstraint=eastwest;newEdgeStyle={&quot;edgeStyle&quot;:&quot;elbowEdgeStyle&quot;,&quot;elbow&quot;:&quot;vertical&quot;,&quot;curved&quot;:0,&quot;rounded&quot;:0};" parent="1" vertex="1">
          <mxGeometry x="951" y="20" width="130" height="2050" as="geometry" />
        </mxCell>
        <mxCell id="8hkkn-3WCArkH5dwM9WC-313" value="" style="html=1;points=[];perimeter=orthogonalPerimeter;outlineConnect=0;targetShapes=umlLifeline;portConstraint=eastwest;newEdgeStyle={&quot;edgeStyle&quot;:&quot;elbowEdgeStyle&quot;,&quot;elbow&quot;:&quot;vertical&quot;,&quot;curved&quot;:0,&quot;rounded&quot;:0};" parent="8hkkn-3WCArkH5dwM9WC-312" vertex="1">
          <mxGeometry x="53" y="600" width="22" height="1410" as="geometry" />
        </mxCell>
        <mxCell id="8hkkn-3WCArkH5dwM9WC-317" value="" style="html=1;points=[];perimeter=orthogonalPerimeter;outlineConnect=0;targetShapes=umlLifeline;portConstraint=eastwest;newEdgeStyle={&quot;edgeStyle&quot;:&quot;elbowEdgeStyle&quot;,&quot;elbow&quot;:&quot;vertical&quot;,&quot;curved&quot;:0,&quot;rounded&quot;:0};" parent="8hkkn-3WCArkH5dwM9WC-312" vertex="1">
          <mxGeometry x="70" y="720" width="10" height="40" as="geometry" />
        </mxCell>
        <mxCell id="8hkkn-3WCArkH5dwM9WC-318" value="12. createDisplayLocked" style="html=1;align=left;spacingLeft=2;endArrow=block;rounded=0;edgeStyle=orthogonalEdgeStyle;curved=0;rounded=0;" parent="8hkkn-3WCArkH5dwM9WC-312" target="8hkkn-3WCArkH5dwM9WC-317" edge="1">
          <mxGeometry relative="1" as="geometry">
            <mxPoint x="75" y="700" as="sourcePoint" />
            <Array as="points">
              <mxPoint x="105" y="730" />
            </Array>
          </mxGeometry>
        </mxCell>
        <mxCell id="8hkkn-3WCArkH5dwM9WC-319" value="" style="html=1;points=[];perimeter=orthogonalPerimeter;outlineConnect=0;targetShapes=umlLifeline;portConstraint=eastwest;newEdgeStyle={&quot;edgeStyle&quot;:&quot;elbowEdgeStyle&quot;,&quot;elbow&quot;:&quot;vertical&quot;,&quot;curved&quot;:0,&quot;rounded&quot;:0};" parent="8hkkn-3WCArkH5dwM9WC-312" vertex="1">
          <mxGeometry x="70" y="790" width="10" height="40" as="geometry" />
        </mxCell>
        <mxCell id="8hkkn-3WCArkH5dwM9WC-320" value="13. onMirageDisplayAdded" style="html=1;align=left;spacingLeft=2;endArrow=block;rounded=0;edgeStyle=orthogonalEdgeStyle;curved=0;rounded=0;" parent="8hkkn-3WCArkH5dwM9WC-312" target="8hkkn-3WCArkH5dwM9WC-319" edge="1">
          <mxGeometry relative="1" as="geometry">
            <mxPoint x="75" y="770" as="sourcePoint" />
            <Array as="points">
              <mxPoint x="105" y="800" />
            </Array>
          </mxGeometry>
        </mxCell>
        <mxCell id="8hkkn-3WCArkH5dwM9WC-321" value="" style="html=1;points=[];perimeter=orthogonalPerimeter;outlineConnect=0;targetShapes=umlLifeline;portConstraint=eastwest;newEdgeStyle={&quot;edgeStyle&quot;:&quot;elbowEdgeStyle&quot;,&quot;elbow&quot;:&quot;vertical&quot;,&quot;curved&quot;:0,&quot;rounded&quot;:0};" parent="8hkkn-3WCArkH5dwM9WC-312" vertex="1">
          <mxGeometry x="70" y="860" width="10" height="40" as="geometry" />
        </mxCell>
        <mxCell id="8hkkn-3WCArkH5dwM9WC-322" value="14. moveTopStack&lt;br&gt;ToMirageDisplay&amp;nbsp;" style="html=1;align=left;spacingLeft=2;endArrow=block;rounded=0;edgeStyle=orthogonalEdgeStyle;curved=0;rounded=0;" parent="8hkkn-3WCArkH5dwM9WC-312" target="8hkkn-3WCArkH5dwM9WC-321" edge="1">
          <mxGeometry relative="1" as="geometry">
            <mxPoint x="75" y="840" as="sourcePoint" />
            <Array as="points">
              <mxPoint x="105" y="870" />
            </Array>
          </mxGeometry>
        </mxCell>
        <mxCell id="8hkkn-3WCArkH5dwM9WC-323" value="" style="html=1;points=[];perimeter=orthogonalPerimeter;outlineConnect=0;targetShapes=umlLifeline;portConstraint=eastwest;newEdgeStyle={&quot;edgeStyle&quot;:&quot;elbowEdgeStyle&quot;,&quot;elbow&quot;:&quot;vertical&quot;,&quot;curved&quot;:0,&quot;rounded&quot;:0};" parent="8hkkn-3WCArkH5dwM9WC-312" vertex="1">
          <mxGeometry x="70" y="930" width="10" height="40" as="geometry" />
        </mxCell>
        <mxCell id="8hkkn-3WCArkH5dwM9WC-324" value="15. getCurrentTopFullscreen&lt;br&gt;NonHomeStackIdl" style="html=1;align=left;spacingLeft=2;endArrow=block;rounded=0;edgeStyle=orthogonalEdgeStyle;curved=0;rounded=0;" parent="8hkkn-3WCArkH5dwM9WC-312" target="8hkkn-3WCArkH5dwM9WC-323" edge="1">
          <mxGeometry relative="1" as="geometry">
            <mxPoint x="75" y="910" as="sourcePoint" />
            <Array as="points">
              <mxPoint x="105" y="940" />
            </Array>
          </mxGeometry>
        </mxCell>
        <mxCell id="8hkkn-3WCArkH5dwM9WC-325" value="" style="html=1;points=[];perimeter=orthogonalPerimeter;outlineConnect=0;targetShapes=umlLifeline;portConstraint=eastwest;newEdgeStyle={&quot;edgeStyle&quot;:&quot;elbowEdgeStyle&quot;,&quot;elbow&quot;:&quot;vertical&quot;,&quot;curved&quot;:0,&quot;rounded&quot;:0};" parent="8hkkn-3WCArkH5dwM9WC-312" vertex="1">
          <mxGeometry x="70" y="1000" width="10" height="40" as="geometry" />
        </mxCell>
        <mxCell id="8hkkn-3WCArkH5dwM9WC-326" value="16. getTopMirageTask&lt;br&gt;最终实现&lt;br&gt;WindowContainer.getRootTask" style="html=1;align=left;spacingLeft=2;endArrow=block;rounded=0;edgeStyle=orthogonalEdgeStyle;curved=0;rounded=0;" parent="8hkkn-3WCArkH5dwM9WC-312" target="8hkkn-3WCArkH5dwM9WC-325" edge="1">
          <mxGeometry relative="1" as="geometry">
            <mxPoint x="75" y="980" as="sourcePoint" />
            <Array as="points">
              <mxPoint x="105" y="1010" />
            </Array>
          </mxGeometry>
        </mxCell>
        <mxCell id="8hkkn-3WCArkH5dwM9WC-329" value="" style="html=1;points=[];perimeter=orthogonalPerimeter;outlineConnect=0;targetShapes=umlLifeline;portConstraint=eastwest;newEdgeStyle={&quot;edgeStyle&quot;:&quot;elbowEdgeStyle&quot;,&quot;elbow&quot;:&quot;vertical&quot;,&quot;curved&quot;:0,&quot;rounded&quot;:0};" parent="8hkkn-3WCArkH5dwM9WC-312" vertex="1">
          <mxGeometry x="70" y="1070" width="10" height="20" as="geometry" />
        </mxCell>
        <mxCell id="8hkkn-3WCArkH5dwM9WC-330" value="17. postMoveStackToMirageDisplay&lt;br&gt;dc.updateDisplayOverride&lt;br&gt;ConfigurationLocked" style="html=1;align=left;spacingLeft=2;endArrow=block;rounded=0;edgeStyle=orthogonalEdgeStyle;curved=0;rounded=0;" parent="8hkkn-3WCArkH5dwM9WC-312" target="8hkkn-3WCArkH5dwM9WC-329" edge="1">
          <mxGeometry relative="1" as="geometry">
            <mxPoint x="75" y="1050" as="sourcePoint" />
            <Array as="points">
              <mxPoint x="105" y="1080" />
            </Array>
          </mxGeometry>
        </mxCell>
        <mxCell id="8hkkn-3WCArkH5dwM9WC-331" value="" style="html=1;points=[];perimeter=orthogonalPerimeter;outlineConnect=0;targetShapes=umlLifeline;portConstraint=eastwest;newEdgeStyle={&quot;edgeStyle&quot;:&quot;elbowEdgeStyle&quot;,&quot;elbow&quot;:&quot;vertical&quot;,&quot;curved&quot;:0,&quot;rounded&quot;:0};" parent="8hkkn-3WCArkH5dwM9WC-312" vertex="1">
          <mxGeometry x="70" y="1144" width="10" height="40" as="geometry" />
        </mxCell>
        <mxCell id="8hkkn-3WCArkH5dwM9WC-332" value="18. snapshotTaskBefore&lt;br&gt;MoveToMirageDisplay" style="html=1;align=left;spacingLeft=2;endArrow=block;rounded=0;edgeStyle=orthogonalEdgeStyle;curved=0;rounded=0;" parent="8hkkn-3WCArkH5dwM9WC-312" target="8hkkn-3WCArkH5dwM9WC-331" edge="1">
          <mxGeometry relative="1" as="geometry">
            <mxPoint x="75" y="1124" as="sourcePoint" />
            <Array as="points">
              <mxPoint x="105" y="1154" />
            </Array>
          </mxGeometry>
        </mxCell>
        <mxCell id="8hkkn-3WCArkH5dwM9WC-333" value="" style="html=1;points=[];perimeter=orthogonalPerimeter;outlineConnect=0;targetShapes=umlLifeline;portConstraint=eastwest;newEdgeStyle={&quot;edgeStyle&quot;:&quot;elbowEdgeStyle&quot;,&quot;elbow&quot;:&quot;vertical&quot;,&quot;curved&quot;:0,&quot;rounded&quot;:0};" parent="8hkkn-3WCArkH5dwM9WC-312" vertex="1">
          <mxGeometry x="70" y="1210" width="10" height="40" as="geometry" />
        </mxCell>
        <mxCell id="8hkkn-3WCArkH5dwM9WC-334" value="19. moveStackToMirageDisplay" style="html=1;align=left;spacingLeft=2;endArrow=block;rounded=0;edgeStyle=orthogonalEdgeStyle;curved=0;rounded=0;" parent="8hkkn-3WCArkH5dwM9WC-312" target="8hkkn-3WCArkH5dwM9WC-333" edge="1">
          <mxGeometry relative="1" as="geometry">
            <mxPoint x="75" y="1190" as="sourcePoint" />
            <Array as="points">
              <mxPoint x="105" y="1220" />
            </Array>
          </mxGeometry>
        </mxCell>
        <mxCell id="8hkkn-3WCArkH5dwM9WC-335" value="" style="html=1;points=[];perimeter=orthogonalPerimeter;outlineConnect=0;targetShapes=umlLifeline;portConstraint=eastwest;newEdgeStyle={&quot;edgeStyle&quot;:&quot;elbowEdgeStyle&quot;,&quot;elbow&quot;:&quot;vertical&quot;,&quot;curved&quot;:0,&quot;rounded&quot;:0};" parent="8hkkn-3WCArkH5dwM9WC-312" vertex="1">
          <mxGeometry x="70" y="1280" width="10" height="40" as="geometry" />
        </mxCell>
        <mxCell id="8hkkn-3WCArkH5dwM9WC-336" value="20. moveHomeStackBehindTopStack&lt;br&gt;TaskDisplayArea.moveRootTask&lt;br&gt;BehindRootTask&lt;br&gt;(homeStack,topMirageTask)" style="html=1;align=left;spacingLeft=2;endArrow=block;rounded=0;edgeStyle=orthogonalEdgeStyle;curved=0;rounded=0;" parent="8hkkn-3WCArkH5dwM9WC-312" target="8hkkn-3WCArkH5dwM9WC-335" edge="1">
          <mxGeometry relative="1" as="geometry">
            <mxPoint x="75" y="1260" as="sourcePoint" />
            <Array as="points">
              <mxPoint x="105" y="1290" />
            </Array>
          </mxGeometry>
        </mxCell>
        <mxCell id="8hkkn-3WCArkH5dwM9WC-314" value="10. notifyDisplayDeviceAdd 兼容老版本走的逻辑" style="html=1;verticalAlign=bottom;endArrow=block;edgeStyle=elbowEdgeStyle;elbow=vertical;curved=0;rounded=0;" parent="1" edge="1">
          <mxGeometry width="80" relative="1" as="geometry">
            <mxPoint x="330" y="672" as="sourcePoint" />
            <mxPoint x="1000" y="672" as="targetPoint" />
          </mxGeometry>
        </mxCell>
        <mxCell id="8hkkn-3WCArkH5dwM9WC-337" value="ActivityTask&lt;br&gt;ManagerService" style="shape=umlLifeline;perimeter=lifelinePerimeter;whiteSpace=wrap;html=1;container=0;dropTarget=0;collapsible=0;recursiveResize=0;outlineConnect=0;portConstraint=eastwest;newEdgeStyle={&quot;edgeStyle&quot;:&quot;elbowEdgeStyle&quot;,&quot;elbow&quot;:&quot;vertical&quot;,&quot;curved&quot;:0,&quot;rounded&quot;:0};" parent="1" vertex="1">
          <mxGeometry x="1230" y="19" width="130" height="1421" as="geometry" />
        </mxCell>
        <mxCell id="8hkkn-3WCArkH5dwM9WC-338" value="" style="html=1;points=[];perimeter=orthogonalPerimeter;outlineConnect=0;targetShapes=umlLifeline;portConstraint=eastwest;newEdgeStyle={&quot;edgeStyle&quot;:&quot;elbowEdgeStyle&quot;,&quot;elbow&quot;:&quot;vertical&quot;,&quot;curved&quot;:0,&quot;rounded&quot;:0};" parent="8hkkn-3WCArkH5dwM9WC-337" vertex="1">
          <mxGeometry x="53" y="1280" width="22" height="110" as="geometry" />
        </mxCell>
        <mxCell id="8hkkn-3WCArkH5dwM9WC-339" value="21. moveRootTaskToDisplay" style="html=1;verticalAlign=bottom;endArrow=block;edgeStyle=elbowEdgeStyle;elbow=vertical;curved=0;rounded=0;" parent="1" edge="1">
          <mxGeometry width="80" relative="1" as="geometry">
            <mxPoint x="1030" y="1360" as="sourcePoint" />
            <mxPoint x="1280" y="1360" as="targetPoint" />
          </mxGeometry>
        </mxCell>
        <mxCell id="8hkkn-3WCArkH5dwM9WC-340" value="RootWindowContainer" style="shape=umlLifeline;perimeter=lifelinePerimeter;whiteSpace=wrap;html=1;container=0;dropTarget=0;collapsible=0;recursiveResize=0;outlineConnect=0;portConstraint=eastwest;newEdgeStyle={&quot;edgeStyle&quot;:&quot;elbowEdgeStyle&quot;,&quot;elbow&quot;:&quot;vertical&quot;,&quot;curved&quot;:0,&quot;rounded&quot;:0};" parent="1" vertex="1">
          <mxGeometry x="1381" y="19" width="130" height="2061" as="geometry" />
        </mxCell>
        <mxCell id="8hkkn-3WCArkH5dwM9WC-341" value="" style="html=1;points=[];perimeter=orthogonalPerimeter;outlineConnect=0;targetShapes=umlLifeline;portConstraint=eastwest;newEdgeStyle={&quot;edgeStyle&quot;:&quot;elbowEdgeStyle&quot;,&quot;elbow&quot;:&quot;vertical&quot;,&quot;curved&quot;:0,&quot;rounded&quot;:0};" parent="8hkkn-3WCArkH5dwM9WC-340" vertex="1">
          <mxGeometry x="53" y="1040" width="22" height="920" as="geometry" />
        </mxCell>
        <mxCell id="8hkkn-3WCArkH5dwM9WC-344" value="" style="html=1;points=[];perimeter=orthogonalPerimeter;outlineConnect=0;targetShapes=umlLifeline;portConstraint=eastwest;newEdgeStyle={&quot;edgeStyle&quot;:&quot;elbowEdgeStyle&quot;,&quot;elbow&quot;:&quot;vertical&quot;,&quot;curved&quot;:0,&quot;rounded&quot;:0};" parent="8hkkn-3WCArkH5dwM9WC-340" vertex="1">
          <mxGeometry x="70" y="1391" width="10" height="40" as="geometry" />
        </mxCell>
        <mxCell id="8hkkn-3WCArkH5dwM9WC-345" value="23. getDisplay&lt;br&gt;ContentOrCreate" style="html=1;align=left;spacingLeft=2;endArrow=block;rounded=0;edgeStyle=orthogonalEdgeStyle;curved=0;rounded=0;" parent="8hkkn-3WCArkH5dwM9WC-340" target="8hkkn-3WCArkH5dwM9WC-344" edge="1">
          <mxGeometry relative="1" as="geometry">
            <mxPoint x="75" y="1371" as="sourcePoint" />
            <Array as="points">
              <mxPoint x="105" y="1401" />
            </Array>
          </mxGeometry>
        </mxCell>
        <mxCell id="8hkkn-3WCArkH5dwM9WC-346" value="" style="html=1;points=[];perimeter=orthogonalPerimeter;outlineConnect=0;targetShapes=umlLifeline;portConstraint=eastwest;newEdgeStyle={&quot;edgeStyle&quot;:&quot;elbowEdgeStyle&quot;,&quot;elbow&quot;:&quot;vertical&quot;,&quot;curved&quot;:0,&quot;rounded&quot;:0};" parent="8hkkn-3WCArkH5dwM9WC-340" vertex="1">
          <mxGeometry x="70" y="1461" width="10" height="40" as="geometry" />
        </mxCell>
        <mxCell id="8hkkn-3WCArkH5dwM9WC-347" value="24. moveRootTask&lt;br&gt;ToTaskDisplayArea" style="html=1;align=left;spacingLeft=2;endArrow=block;rounded=0;edgeStyle=orthogonalEdgeStyle;curved=0;rounded=0;" parent="8hkkn-3WCArkH5dwM9WC-340" target="8hkkn-3WCArkH5dwM9WC-346" edge="1">
          <mxGeometry relative="1" as="geometry">
            <mxPoint x="75" y="1441" as="sourcePoint" />
            <Array as="points">
              <mxPoint x="105" y="1471" />
            </Array>
          </mxGeometry>
        </mxCell>
        <mxCell id="8hkkn-3WCArkH5dwM9WC-342" value="17.1getDisplayContent(displayId)" style="html=1;verticalAlign=bottom;endArrow=block;edgeStyle=elbowEdgeStyle;elbow=vertical;curved=0;rounded=0;" parent="1" edge="1">
          <mxGeometry width="80" relative="1" as="geometry">
            <mxPoint x="1030" y="1124" as="sourcePoint" />
            <mxPoint x="1430" y="1124" as="targetPoint" />
          </mxGeometry>
        </mxCell>
        <mxCell id="8hkkn-3WCArkH5dwM9WC-343" value="22. moveRoot&lt;br&gt;TaskToDisplay" style="html=1;verticalAlign=bottom;endArrow=block;edgeStyle=elbowEdgeStyle;elbow=vertical;curved=0;rounded=0;" parent="1" edge="1">
          <mxGeometry width="80" relative="1" as="geometry">
            <mxPoint x="1310" y="1380" as="sourcePoint" />
            <mxPoint x="1430" y="1380" as="targetPoint" />
          </mxGeometry>
        </mxCell>
        <mxCell id="8hkkn-3WCArkH5dwM9WC-348" value="&amp;nbsp;35. ensureActivitiesVisible" style="html=1;verticalAlign=bottom;endArrow=block;edgeStyle=elbowEdgeStyle;elbow=vertical;curved=0;rounded=0;" parent="1" edge="1">
          <mxGeometry width="80" relative="1" as="geometry">
            <mxPoint x="1030" y="1952" as="sourcePoint" />
            <mxPoint x="1430" y="1952" as="targetPoint" />
          </mxGeometry>
        </mxCell>
        <mxCell id="BTnKgpzovzwkrVFmSv59-1" value="Task" style="shape=umlLifeline;perimeter=lifelinePerimeter;whiteSpace=wrap;html=1;container=0;dropTarget=0;collapsible=0;recursiveResize=0;outlineConnect=0;portConstraint=eastwest;newEdgeStyle={&quot;edgeStyle&quot;:&quot;elbowEdgeStyle&quot;,&quot;elbow&quot;:&quot;vertical&quot;,&quot;curved&quot;:0,&quot;rounded&quot;:0};" parent="1" vertex="1">
          <mxGeometry x="1570" y="19" width="130" height="2021" as="geometry" />
        </mxCell>
        <mxCell id="BTnKgpzovzwkrVFmSv59-2" value="" style="html=1;points=[];perimeter=orthogonalPerimeter;outlineConnect=0;targetShapes=umlLifeline;portConstraint=eastwest;newEdgeStyle={&quot;edgeStyle&quot;:&quot;elbowEdgeStyle&quot;,&quot;elbow&quot;:&quot;vertical&quot;,&quot;curved&quot;:0,&quot;rounded&quot;:0};" parent="BTnKgpzovzwkrVFmSv59-1" vertex="1">
          <mxGeometry x="53" y="1040" width="22" height="910" as="geometry" />
        </mxCell>
        <mxCell id="BTnKgpzovzwkrVFmSv59-8" value="" style="html=1;points=[];perimeter=orthogonalPerimeter;outlineConnect=0;targetShapes=umlLifeline;portConstraint=eastwest;newEdgeStyle={&quot;edgeStyle&quot;:&quot;elbowEdgeStyle&quot;,&quot;elbow&quot;:&quot;vertical&quot;,&quot;curved&quot;:0,&quot;rounded&quot;:0};" parent="BTnKgpzovzwkrVFmSv59-1" vertex="1">
          <mxGeometry x="70" y="1550" width="10" height="40" as="geometry" />
        </mxCell>
        <mxCell id="BTnKgpzovzwkrVFmSv59-9" value="26. canBeLaunched&lt;br&gt;OnDisplay" style="html=1;align=left;spacingLeft=2;endArrow=block;rounded=0;edgeStyle=orthogonalEdgeStyle;curved=0;rounded=0;" parent="BTnKgpzovzwkrVFmSv59-1" target="BTnKgpzovzwkrVFmSv59-8" edge="1">
          <mxGeometry relative="1" as="geometry">
            <mxPoint x="75" y="1530" as="sourcePoint" />
            <Array as="points">
              <mxPoint x="105" y="1560" />
            </Array>
          </mxGeometry>
        </mxCell>
        <mxCell id="BTnKgpzovzwkrVFmSv59-7" value="25. reparent" style="html=1;verticalAlign=bottom;endArrow=block;edgeStyle=elbowEdgeStyle;elbow=vertical;curved=0;rounded=0;" parent="1" edge="1">
          <mxGeometry width="80" relative="1" as="geometry">
            <mxPoint x="1460" y="1540" as="sourcePoint" />
            <mxPoint x="1620" y="1540" as="targetPoint" />
          </mxGeometry>
        </mxCell>
        <mxCell id="BTnKgpzovzwkrVFmSv59-12" value="WindowContainer" style="shape=umlLifeline;perimeter=lifelinePerimeter;whiteSpace=wrap;html=1;container=0;dropTarget=0;collapsible=0;recursiveResize=0;outlineConnect=0;portConstraint=eastwest;newEdgeStyle={&quot;edgeStyle&quot;:&quot;elbowEdgeStyle&quot;,&quot;elbow&quot;:&quot;vertical&quot;,&quot;curved&quot;:0,&quot;rounded&quot;:0};" parent="1" vertex="1">
          <mxGeometry x="1730" y="19" width="130" height="1861" as="geometry" />
        </mxCell>
        <mxCell id="BTnKgpzovzwkrVFmSv59-13" value="" style="html=1;points=[];perimeter=orthogonalPerimeter;outlineConnect=0;targetShapes=umlLifeline;portConstraint=eastwest;newEdgeStyle={&quot;edgeStyle&quot;:&quot;elbowEdgeStyle&quot;,&quot;elbow&quot;:&quot;vertical&quot;,&quot;curved&quot;:0,&quot;rounded&quot;:0};" parent="BTnKgpzovzwkrVFmSv59-12" vertex="1">
          <mxGeometry x="53" y="1040" width="22" height="710" as="geometry" />
        </mxCell>
        <mxCell id="BTnKgpzovzwkrVFmSv59-19" value="" style="html=1;points=[];perimeter=orthogonalPerimeter;outlineConnect=0;targetShapes=umlLifeline;portConstraint=eastwest;newEdgeStyle={&quot;edgeStyle&quot;:&quot;elbowEdgeStyle&quot;,&quot;elbow&quot;:&quot;vertical&quot;,&quot;curved&quot;:0,&quot;rounded&quot;:0};" parent="BTnKgpzovzwkrVFmSv59-12" vertex="1">
          <mxGeometry x="70" y="1651" width="10" height="40" as="geometry" />
        </mxCell>
        <mxCell id="BTnKgpzovzwkrVFmSv59-20" value="28. onDisplay&lt;br&gt;Changed" style="html=1;align=left;spacingLeft=2;endArrow=block;rounded=0;edgeStyle=orthogonalEdgeStyle;curved=0;rounded=0;" parent="BTnKgpzovzwkrVFmSv59-12" target="BTnKgpzovzwkrVFmSv59-19" edge="1">
          <mxGeometry relative="1" as="geometry">
            <mxPoint x="75" y="1631" as="sourcePoint" />
            <Array as="points">
              <mxPoint x="105" y="1661" />
            </Array>
          </mxGeometry>
        </mxCell>
        <mxCell id="BTnKgpzovzwkrVFmSv59-18" value="27. reparent" style="html=1;verticalAlign=bottom;endArrow=block;edgeStyle=elbowEdgeStyle;elbow=vertical;curved=0;rounded=0;" parent="1" edge="1">
          <mxGeometry width="80" relative="1" as="geometry">
            <mxPoint x="1650" y="1630" as="sourcePoint" />
            <mxPoint x="1780" y="1630" as="targetPoint" />
          </mxGeometry>
        </mxCell>
        <mxCell id="BTnKgpzovzwkrVFmSv59-21" value="DisplayContent" style="shape=umlLifeline;perimeter=lifelinePerimeter;whiteSpace=wrap;html=1;container=0;dropTarget=0;collapsible=0;recursiveResize=0;outlineConnect=0;portConstraint=eastwest;newEdgeStyle={&quot;edgeStyle&quot;:&quot;elbowEdgeStyle&quot;,&quot;elbow&quot;:&quot;vertical&quot;,&quot;curved&quot;:0,&quot;rounded&quot;:0};" parent="1" vertex="1">
          <mxGeometry x="1901" y="20" width="130" height="1870" as="geometry" />
        </mxCell>
        <mxCell id="BTnKgpzovzwkrVFmSv59-22" value="" style="html=1;points=[];perimeter=orthogonalPerimeter;outlineConnect=0;targetShapes=umlLifeline;portConstraint=eastwest;newEdgeStyle={&quot;edgeStyle&quot;:&quot;elbowEdgeStyle&quot;,&quot;elbow&quot;:&quot;vertical&quot;,&quot;curved&quot;:0,&quot;rounded&quot;:0};" parent="BTnKgpzovzwkrVFmSv59-21" vertex="1">
          <mxGeometry x="53" y="1040" width="22" height="800" as="geometry" />
        </mxCell>
        <mxCell id="BTnKgpzovzwkrVFmSv59-26" value="" style="html=1;points=[];perimeter=orthogonalPerimeter;outlineConnect=0;targetShapes=umlLifeline;portConstraint=eastwest;newEdgeStyle={&quot;edgeStyle&quot;:&quot;elbowEdgeStyle&quot;,&quot;elbow&quot;:&quot;vertical&quot;,&quot;curved&quot;:0,&quot;rounded&quot;:0};" parent="BTnKgpzovzwkrVFmSv59-21" vertex="1">
          <mxGeometry x="70" y="1750" width="10" height="40" as="geometry" />
        </mxCell>
        <mxCell id="BTnKgpzovzwkrVFmSv59-27" value="30. assignWindow&lt;br&gt;Layers" style="html=1;align=left;spacingLeft=2;endArrow=block;rounded=0;edgeStyle=orthogonalEdgeStyle;curved=0;rounded=0;" parent="BTnKgpzovzwkrVFmSv59-21" target="BTnKgpzovzwkrVFmSv59-26" edge="1">
          <mxGeometry relative="1" as="geometry">
            <mxPoint x="75" y="1730" as="sourcePoint" />
            <Array as="points">
              <mxPoint x="105" y="1760" />
            </Array>
          </mxGeometry>
        </mxCell>
        <mxCell id="BTnKgpzovzwkrVFmSv59-25" value="29. layoutAndAssign&lt;br&gt;WindowLayersIfNeeded" style="html=1;verticalAlign=bottom;endArrow=block;edgeStyle=elbowEdgeStyle;elbow=vertical;curved=0;rounded=0;" parent="1" edge="1">
          <mxGeometry width="80" relative="1" as="geometry">
            <mxPoint x="1810" y="1737" as="sourcePoint" />
            <mxPoint x="1950" y="1737" as="targetPoint" />
          </mxGeometry>
        </mxCell>
        <mxCell id="BTnKgpzovzwkrVFmSv59-28" value="WindowSurfacePlacer" style="shape=umlLifeline;perimeter=lifelinePerimeter;whiteSpace=wrap;html=1;container=0;dropTarget=0;collapsible=0;recursiveResize=0;outlineConnect=0;portConstraint=eastwest;newEdgeStyle={&quot;edgeStyle&quot;:&quot;elbowEdgeStyle&quot;,&quot;elbow&quot;:&quot;vertical&quot;,&quot;curved&quot;:0,&quot;rounded&quot;:0};" parent="1" vertex="1">
          <mxGeometry x="2080" y="20" width="130" height="1870" as="geometry" />
        </mxCell>
        <mxCell id="BTnKgpzovzwkrVFmSv59-29" value="" style="html=1;points=[];perimeter=orthogonalPerimeter;outlineConnect=0;targetShapes=umlLifeline;portConstraint=eastwest;newEdgeStyle={&quot;edgeStyle&quot;:&quot;elbowEdgeStyle&quot;,&quot;elbow&quot;:&quot;vertical&quot;,&quot;curved&quot;:0,&quot;rounded&quot;:0};" parent="BTnKgpzovzwkrVFmSv59-28" vertex="1">
          <mxGeometry x="53" y="1040" width="22" height="800" as="geometry" />
        </mxCell>
        <mxCell id="BTnKgpzovzwkrVFmSv59-32" value="31. performSurface&lt;br&gt;Placement" style="html=1;verticalAlign=bottom;endArrow=block;edgeStyle=elbowEdgeStyle;elbow=vertical;curved=0;rounded=0;" parent="1" edge="1">
          <mxGeometry width="80" relative="1" as="geometry">
            <mxPoint x="1980" y="1830" as="sourcePoint" />
            <mxPoint x="2130" y="1830" as="targetPoint" />
          </mxGeometry>
        </mxCell>
        <mxCell id="BTnKgpzovzwkrVFmSv59-35" value="32. resumeNext&lt;br&gt;FocusAfterReparent" style="html=1;verticalAlign=bottom;endArrow=block;edgeStyle=elbowEdgeStyle;elbow=vertical;curved=0;rounded=0;" parent="1" edge="1">
          <mxGeometry x="-0.0013" width="80" relative="1" as="geometry">
            <mxPoint x="1460" y="1850" as="sourcePoint" />
            <mxPoint x="1620" y="1850" as="targetPoint" />
            <mxPoint as="offset" />
          </mxGeometry>
        </mxCell>
        <mxCell id="BTnKgpzovzwkrVFmSv59-36" value="33. resumeFocused&lt;br&gt;TasksTopActivities" style="html=1;verticalAlign=bottom;endArrow=block;edgeStyle=elbowEdgeStyle;elbow=vertical;curved=0;rounded=0;" parent="1" edge="1">
          <mxGeometry x="-0.0013" width="80" relative="1" as="geometry">
            <mxPoint x="1619" y="1890" as="sourcePoint" />
            <mxPoint x="1459" y="1890" as="targetPoint" />
            <mxPoint as="offset" />
          </mxGeometry>
        </mxCell>
        <mxCell id="BTnKgpzovzwkrVFmSv59-37" value="34. ensureActivitiesVisble" style="html=1;verticalAlign=bottom;endArrow=block;edgeStyle=elbowEdgeStyle;elbow=vertical;curved=0;rounded=0;" parent="1" edge="1">
          <mxGeometry x="-0.0013" width="80" relative="1" as="geometry">
            <mxPoint x="1620" y="1930" as="sourcePoint" />
            <mxPoint x="1460" y="1930" as="targetPoint" />
            <mxPoint as="offset" />
          </mxGeometry>
        </mxCell>
        <mxCell id="gd3cZbeCwH0rsJXDqoFe-1" value="&lt;div style=&quot;text-align: left;&quot;&gt;&lt;span style=&quot;background-color: initial;&quot;&gt;参数&lt;/span&gt;&lt;/div&gt;&lt;div style=&quot;text-align: left;&quot;&gt;&lt;span style=&quot;background-color: initial;&quot;&gt;intent：一般为null，只有车机模式下非null，携带start信息&lt;/span&gt;&lt;/div&gt;&lt;div style=&quot;text-align: left;&quot;&gt;&lt;span style=&quot;background-color: initial;&quot;&gt;startOptions:启动屏幕的参数配置&lt;/span&gt;&lt;/div&gt;&lt;div style=&quot;text-align: left;&quot;&gt;&lt;span style=&quot;background-color: initial;&quot;&gt;&lt;br&gt;&lt;/span&gt;&lt;/div&gt;&lt;div style=&quot;text-align: left;&quot;&gt;&lt;span style=&quot;background-color: initial;&quot;&gt;备注：TV投屏使用旧接口，startMirageWindowMode(componentName,int,int,bundle)，&lt;/span&gt;&lt;/div&gt;&lt;div style=&quot;text-align: left;&quot;&gt;&lt;span style=&quot;background-color: initial;&quot;&gt;封装后调用新接口&lt;/span&gt;&lt;/div&gt;" style="shape=note;size=20;whiteSpace=wrap;html=1;fillColor=#FFFF00;" vertex="1" parent="1">
          <mxGeometry x="-470" y="50" width="320" height="120" as="geometry" />
        </mxCell>
        <mxCell id="gd3cZbeCwH0rsJXDqoFe-4" value="&lt;div style=&quot;text-align: left;&quot;&gt;step1:根据options创建OplusMirageDisplayInfo&lt;/div&gt;" style="shape=note;size=20;whiteSpace=wrap;html=1;fillColor=#FFFF00;" vertex="1" parent="1">
          <mxGeometry y="160" width="290" height="30" as="geometry" />
        </mxCell>
        <mxCell id="gd3cZbeCwH0rsJXDqoFe-5" value="4.OplusMirageDisplayInfo" style="html=1;verticalAlign=bottom;endArrow=open;dashed=1;endSize=8;edgeStyle=elbowEdgeStyle;elbow=vertical;curved=0;rounded=0;" edge="1" parent="1">
          <mxGeometry relative="1" as="geometry">
            <mxPoint x="515" y="220" as="sourcePoint" />
            <mxPoint x="330" y="220" as="targetPoint" />
          </mxGeometry>
        </mxCell>
        <mxCell id="gd3cZbeCwH0rsJXDqoFe-6" value="&lt;div style=&quot;text-align: left;&quot;&gt;step2:创建虚拟display&lt;/div&gt;&lt;div style=&quot;text-align: left;&quot;&gt;根据OplusMirageDisplayInfo创建OplusMirageDispalyDevice&lt;/div&gt;" style="shape=note;size=20;whiteSpace=wrap;html=1;fillColor=#FFFF00;" vertex="1" parent="1">
          <mxGeometry x="-30" y="310" width="330" height="40" as="geometry" />
        </mxCell>
        <mxCell id="gd3cZbeCwH0rsJXDqoFe-7" value="创建实际虚拟display" style="shape=note;size=20;whiteSpace=wrap;html=1;fillColor=#FFFF00;" vertex="1" parent="1">
          <mxGeometry x="480" y="360" width="190" height="30" as="geometry" />
        </mxCell>
        <mxCell id="gd3cZbeCwH0rsJXDqoFe-9" value="8.new DisplayDevice()" style="html=1;verticalAlign=bottom;endArrow=block;edgeStyle=elbowEdgeStyle;elbow=vertical;curved=0;rounded=0;" edge="1" parent="1" target="8hkkn-3WCArkH5dwM9WC-307">
          <mxGeometry width="80" relative="1" as="geometry">
            <mxPoint x="700" y="440" as="sourcePoint" />
            <mxPoint x="850" y="440" as="targetPoint" />
          </mxGeometry>
        </mxCell>
        <mxCell id="gd3cZbeCwH0rsJXDqoFe-10" value="OverlayDisplayDevice" style="html=1;verticalAlign=bottom;endArrow=open;dashed=1;endSize=8;edgeStyle=elbowEdgeStyle;elbow=vertical;curved=0;rounded=0;" edge="1" parent="1">
          <mxGeometry relative="1" as="geometry">
            <mxPoint x="850" y="470" as="sourcePoint" />
            <mxPoint x="700" y="470" as="targetPoint" />
          </mxGeometry>
        </mxCell>
        <mxCell id="gd3cZbeCwH0rsJXDqoFe-11" value="由OverlayAdapter创建一个&lt;br&gt;OverlayDisplayDevice" style="shape=note;size=20;whiteSpace=wrap;html=1;fillColor=#FFFF00;" vertex="1" parent="1">
          <mxGeometry x="480" y="420" width="190" height="40" as="geometry" />
        </mxCell>
        <mxCell id="gd3cZbeCwH0rsJXDqoFe-12" value="发送一个DISPLAY_DEVICE_EVENT_ADDED event&lt;br&gt;用于创建LogicalDisplay等，该event实际上执行&lt;br&gt;DisplayDeviceRepository#handleDisplayDeviceAdded()" style="shape=note;size=20;whiteSpace=wrap;html=1;fillColor=#FFFF00;" vertex="1" parent="1">
          <mxGeometry x="360" y="490" width="310" height="60" as="geometry" />
        </mxCell>
        <mxCell id="gd3cZbeCwH0rsJXDqoFe-15" value="step3:记录当前创建的devices" style="shape=note;size=20;whiteSpace=wrap;html=1;fillColor=#FFFF00;" vertex="1" parent="1">
          <mxGeometry x="100" y="600" width="200" height="30" as="geometry" />
        </mxCell>
        <mxCell id="gd3cZbeCwH0rsJXDqoFe-16" value="step4:处理task向虚拟屏display搬移操作" style="shape=note;size=20;whiteSpace=wrap;html=1;fillColor=#FFFF00;" vertex="1" parent="1">
          <mxGeometry x="740" y="870" width="260" height="30" as="geometry" />
        </mxCell>
        <mxCell id="gd3cZbeCwH0rsJXDqoFe-17" value="获取当前 topFullScreen 非home的taskid" style="shape=note;size=20;whiteSpace=wrap;html=1;fillColor=#FFFF00;" vertex="1" parent="1">
          <mxGeometry x="740" y="930" width="260" height="30" as="geometry" />
        </mxCell>
        <mxCell id="gd3cZbeCwH0rsJXDqoFe-18" value="主动触发一次snapshotTask" style="shape=note;size=20;whiteSpace=wrap;html=1;fillColor=#FFFF00;" vertex="1" parent="1">
          <mxGeometry x="790" y="1160" width="210" height="30" as="geometry" />
        </mxCell>
        <mxCell id="gd3cZbeCwH0rsJXDqoFe-19" value="真正的task reparent流程" style="shape=note;size=20;whiteSpace=wrap;html=1;fillColor=#FFFF00;" vertex="1" parent="1">
          <mxGeometry x="790" y="1220" width="210" height="30" as="geometry" />
        </mxCell>
        <mxCell id="gd3cZbeCwH0rsJXDqoFe-20" value="step4.1:将launcher移到当前topTask下&lt;br&gt;目的：将topTask Reparent后，桌面便可见" style="shape=note;size=20;whiteSpace=wrap;html=1;fillColor=#FFFF00;" vertex="1" parent="1">
          <mxGeometry x="740" y="1270" width="260" height="50" as="geometry" />
        </mxCell>
        <mxCell id="gd3cZbeCwH0rsJXDqoFe-21" value="step4.2: 将task reparent到虚拟display" style="shape=note;size=20;whiteSpace=wrap;html=1;fillColor=#FFFF00;" vertex="1" parent="1">
          <mxGeometry x="740" y="1340" width="250" height="30" as="geometry" />
        </mxCell>
        <mxCell id="gd3cZbeCwH0rsJXDqoFe-22" value="step4.3: update Activity visibility to resume Launcher" style="shape=note;size=20;whiteSpace=wrap;html=1;fillColor=#FFFF00;" vertex="1" parent="1">
          <mxGeometry x="660" y="1930" width="335" height="30" as="geometry" />
        </mxCell>
        <mxCell id="gd3cZbeCwH0rsJXDqoFe-24" value="notifyCastSuccess" style="html=1;verticalAlign=bottom;endArrow=block;edgeStyle=elbowEdgeStyle;elbow=vertical;curved=0;rounded=0;" edge="1" parent="1">
          <mxGeometry width="80" relative="1" as="geometry">
            <mxPoint x="1000" y="1990" as="sourcePoint" />
            <mxPoint x="120" y="1990" as="targetPoint" />
          </mxGeometry>
        </mxCell>
        <mxCell id="gd3cZbeCwH0rsJXDqoFe-25" value="触发投屏success回调" style="shape=note;size=20;whiteSpace=wrap;html=1;fillColor=#FFFF00;" vertex="1" parent="1">
          <mxGeometry x="120" y="1950" width="335" height="30" as="geometry" />
        </mxCell>
        <mxCell id="gd3cZbeCwH0rsJXDqoFe-26" value="业务方app" style="shape=umlLifeline;perimeter=lifelinePerimeter;whiteSpace=wrap;html=1;container=1;dropTarget=0;collapsible=0;recursiveResize=0;outlineConnect=0;portConstraint=eastwest;newEdgeStyle={&quot;edgeStyle&quot;:&quot;elbowEdgeStyle&quot;,&quot;elbow&quot;:&quot;vertical&quot;,&quot;curved&quot;:0,&quot;rounded&quot;:0};" vertex="1" parent="1">
          <mxGeometry x="-137" y="28" width="100" height="2032" as="geometry" />
        </mxCell>
        <mxCell id="gd3cZbeCwH0rsJXDqoFe-27" value="" style="html=1;points=[];perimeter=orthogonalPerimeter;outlineConnect=0;targetShapes=umlLifeline;portConstraint=eastwest;newEdgeStyle={&quot;edgeStyle&quot;:&quot;elbowEdgeStyle&quot;,&quot;elbow&quot;:&quot;vertical&quot;,&quot;curved&quot;:0,&quot;rounded&quot;:0};" vertex="1" parent="gd3cZbeCwH0rsJXDqoFe-26">
          <mxGeometry x="37.5" y="57" width="25" height="80" as="geometry" />
        </mxCell>
        <mxCell id="gd3cZbeCwH0rsJXDqoFe-28" value="" style="html=1;verticalAlign=bottom;endArrow=open;dashed=1;endSize=8;edgeStyle=elbowEdgeStyle;elbow=vertical;curved=0;rounded=0;" edge="1" parent="1">
          <mxGeometry relative="1" as="geometry">
            <mxPoint x="300" y="2029" as="sourcePoint" />
            <mxPoint x="-87.33333333333348" y="2029" as="targetPoint" />
          </mxGeometry>
        </mxCell>
        <mxCell id="gd3cZbeCwH0rsJXDqoFe-29" value="displayId" style="text;html=1;align=center;verticalAlign=middle;resizable=0;points=[];autosize=1;strokeColor=none;fillColor=none;" vertex="1" parent="1">
          <mxGeometry x="-80" y="2000" width="70" height="30" as="geometry" />
        </mxCell>
        <mxCell id="gd3cZbeCwH0rsJXDqoFe-30" value="step5: 返回displayId给业务方" style="shape=note;size=20;whiteSpace=wrap;html=1;fillColor=#FFFF00;" vertex="1" parent="1">
          <mxGeometry x="-350" y="2020" width="235" height="30" as="geometry" />
        </mxCell>
      </root>
    </mxGraphModel>
  </diagram>
</mxfile>
